{
    "asset" : {
        "generator" : "Khronos glTF Blender I/O v1.0.5",
        "version" : "2.0"
    },
    "scene" : 0,
    "scenes" : [
        {
            "name" : "Scene",
            "nodes" : [
                0,
                1,
                2
            ]
        }
    ],
    "nodes" : [
        {
            "name" : "Light",
            "rotation" : [
                0.16907575726509094,
                0.7558803558349609,
                -0.27217137813568115,
                0.570947527885437
            ],
            "translation" : [
                4.076245307922363,
                5.903861999511719,
                -1.0054539442062378
            ]
        },
        {
            "name" : "Camera",
            "rotation" : [
                0.483536034822464,
                0.33687159419059753,
                -0.20870360732078552,
                0.7804827094078064
            ],
            "translation" : [
                7.358891487121582,
                4.958309173583984,
                6.925790786743164
            ]
        },
        {
            "mesh" : 0,
            "name" : "logo kaiserVR",
            "rotation" : [
                0.7071068286895752,
                0,
                0,
                0.7071067094802856
            ],
            "scale" : [
                0.0006451599765568972,
                0.0006451599765568972,
                0.0006451599765568972
            ],
            "translation" : [
                0.05099475756287575,
                0.18254750967025757,
                0.0022633206099271774
            ]
        }
    ],
    "animations" : [
        {
            "channels" : [
                {
                    "sampler" : 0,
                    "target" : {
                        "node" : 2,
                        "path" : "translation"
                    }
                },
                {
                    "sampler" : 1,
                    "target" : {
                        "node" : 2,
                        "path" : "rotation"
                    }
                },
                {
                    "sampler" : 2,
                    "target" : {
                        "node" : 2,
                        "path" : "scale"
                    }
                }
            ],
            "name" : "logo kaiserVR|Take 001|BaseLayer",
            "samplers" : [
                {
                    "input" : 6,
                    "interpolation" : "STEP",
                    "output" : 7
                },
                {
                    "input" : 6,
                    "interpolation" : "STEP",
                    "output" : 8
                },
                {
                    "input" : 6,
                    "interpolation" : "STEP",
                    "output" : 9
                }
            ]
        }
    ],
    "materials" : [
        {
            "doubleSided" : true,
            "name" : "Material #1109",
            "pbrMetallicRoughness" : {
                "baseColorFactor" : [
                    0.07058823853731155,
                    0.1568627506494522,
                    0.21568627655506134,
                    1
                ],
                "metallicFactor" : 1,
                "roughnessFactor" : 0.858578622341156
            }
        },
        {
            "doubleSided" : true,
            "name" : "Material #1110",
            "pbrMetallicRoughness" : {
                "baseColorFactor" : [
                    0.0117647061124444,
                    0.0117647061124444,
                    0.0117647061124444,
                    1
                ],
                "metallicFactor" : 1,
                "roughnessFactor" : 0.858578622341156
            }
        }
    ],
    "meshes" : [
        {
            "name" : "Mesh",
            "primitives" : [
                {
                    "attributes" : {
                        "POSITION" : 0,
                        "NORMAL" : 1
                    },
                    "indices" : 2,
                    "material" : 0
                },
                {
                    "attributes" : {
                        "POSITION" : 3,
                        "NORMAL" : 4
                    },
                    "indices" : 5,
                    "material" : 1
                }
            ]
        }
    ],
    "accessors" : [
        {
            "bufferView" : 0,
            "componentType" : 5126,
            "count" : 3641,
            "max" : [
                -147.20721435546875,
                11.62037467956543,
                130.0829620361328
            ],
            "min" : [
                -255.02523803710938,
                1.620345115661621,
                -78.2198486328125
            ],
            "type" : "VEC3"
        },
        {
            "bufferView" : 1,
            "componentType" : 5126,
            "count" : 3641,
            "type" : "VEC3"
        },
        {
            "bufferView" : 2,
            "componentType" : 5123,
            "count" : 3912,
            "type" : "SCALAR"
        },
        {
            "bufferView" : 3,
            "componentType" : 5126,
            "count" : 5081,
            "max" : [
                96.43746948242188,
                21.620372772216797,
                130.0829620361328
            ],
            "min" : [
                -148.35379028320312,
                1.620345115661621,
                -78.59365844726562
            ],
            "type" : "VEC3"
        },
        {
            "bufferView" : 4,
            "componentType" : 5126,
            "count" : 5081,
            "type" : "VEC3"
        },
        {
            "bufferView" : 5,
            "componentType" : 5123,
            "count" : 5496,
            "type" : "SCALAR"
        },
        {
            "bufferView" : 6,
            "componentType" : 5126,
            "count" : 1,
            "max" : [
                0.03333333333333333
            ],
            "min" : [
                0.03333333333333333
            ],
            "type" : "SCALAR"
        },
        {
            "bufferView" : 7,
            "componentType" : 5126,
            "count" : 1,
            "type" : "VEC3"
        },
        {
            "bufferView" : 8,
            "componentType" : 5126,
            "count" : 1,
            "type" : "VEC4"
        },
        {
            "bufferView" : 9,
            "componentType" : 5126,
            "count" : 1,
            "type" : "VEC3"
        }
    ],
    "bufferViews" : [
        {
            "buffer" : 0,
            "byteLength" : 43692,
            "byteOffset" : 0
        },
        {
            "buffer" : 0,
            "byteLength" : 43692,
            "byteOffset" : 43692
        },
        {
            "buffer" : 0,
            "byteLength" : 7824,
            "byteOffset" : 87384
        },
        {
            "buffer" : 0,
            "byteLength" : 60972,
            "byteOffset" : 95208
        },
        {
            "buffer" : 0,
            "byteLength" : 60972,
            "byteOffset" : 156180
        },
        {
            "buffer" : 0,
            "byteLength" : 10992,
            "byteOffset" : 217152
        },
        {
            "buffer" : 0,
            "byteLength" : 4,
            "byteOffset" : 228144
        },
        {
            "buffer" : 0,
            "byteLength" : 12,
            "byteOffset" : 228148
        },
        {
            "buffer" : 0,
            "byteLength" : 16,
            "byteOffset" : 228160
        },
        {
            "buffer" : 0,
            "byteLength" : 12,
            "byteOffset" : 228176
        }
    ],
    "buffers" : [
        {
            "byteLength" : 228188,
            "uri" : "data:application/octet-stream;base64,"
        }
    ]
}
